<?xml version="1.0" standalone="no"?>
<!DOCTYPE svg PUBLIC "-//W3C//DTD SVG 20010904//EN"
 "http://www.w3.org/TR/2001/REC-SVG-20010904/DTD/svg10.dtd">
<svg version="1.0" xmlns="http://www.w3.org/2000/svg"
 width="273.000000pt" height="334.000000pt" viewBox="0 0 273.000000 334.000000"
 preserveAspectRatio="xMidYMid meet">

<g transform="translate(0.000000,334.000000) scale(0.100000,-0.100000)"
fill="#000000" stroke="none">
<path d="M975 3306 c-11 -9 -31 -16 -44 -16 -31 0 -192 -82 -322 -163 -100
-61 -303 -233 -336 -284 -9 -14 -30 -40 -46 -59 -29 -33 -45 -57 -69 -104 -6
-14 -17 -32 -24 -40 -6 -8 -17 -32 -24 -52 -6 -21 -16 -38 -22 -38 -6 0 -8 -6
-5 -13 3 -7 -7 -38 -21 -68 -25 -53 -26 -58 -26 -284 -1 -146 3 -248 11 -280
7 -27 16 -70 22 -95 5 -25 28 -85 50 -134 23 -48 41 -90 41 -93 0 -15 63 -82
72 -77 7 4 8 2 4 -4 -14 -22 219 -233 294 -265 14 -7 27 -14 30 -18 13 -16
172 -83 263 -110 77 -24 129 -33 209 -36 73 -4 111 -10 119 -19 11 -13 8 -109
-16 -619 -19 -410 -20 -373 5 -400 29 -31 44 -31 117 -1 32 13 101 40 153 59
52 20 116 45 143 56 l47 20 0 143 c0 79 -5 206 -10 283 -6 77 -11 216 -12 310
l-3 170 77 12 c258 39 473 151 676 351 218 215 279 338 363 727 8 37 14 132
14 245 0 163 -3 195 -23 268 -72 258 -210 430 -454 570 -106 60 -318 89 -435
59 -114 -30 -230 -99 -311 -186 -80 -87 -178 -268 -219 -406 -57 -191 -56
-182 -79 -875 -4 -102 -9 -264 -13 -360 l-6 -175 -33 3 c-59 6 -194 57 -267
99 -127 75 -234 187 -308 324 -44 80 -71 162 -103 312 -56 264 -11 546 121
752 89 139 261 297 407 373 69 36 76 50 57 104 -17 47 -34 56 -64 34z m980
-286 c117 -58 263 -217 325 -355 57 -127 71 -193 77 -360 7 -194 -5 -297 -52
-440 -88 -272 -286 -462 -556 -534 -41 -11 -100 -23 -131 -27 -54 -6 -57 -5
-63 17 -3 13 -7 341 -8 729 l-2 705 24 75 c54 173 120 234 246 228 55 -3 85
-11 140 -38z"/>
</g>
</svg>
